<svg width="40" height="41" viewBox="0 0 40 41" fill="none" xmlns="http://www.w3.org/2000/svg">
<circle cx="20" cy="20.7998" r="19.5" stroke="#FF7C40"/>
<path d="M17.2969 14.4248V25.7998H15.3516V14.4248H17.2969ZM20.8672 14.4248V15.9873H11.8125V14.4248H20.8672ZM26.8438 17.3467H28.5547V25.5654C28.5547 26.3258 28.3932 26.9717 28.0703 27.5029C27.7474 28.0342 27.2969 28.4378 26.7188 28.7139C26.1406 28.9951 25.4714 29.1357 24.7109 29.1357C24.388 29.1357 24.0286 29.0889 23.6328 28.9951C23.2422 28.9014 22.862 28.7503 22.4922 28.542C22.1276 28.3389 21.8229 28.0706 21.5781 27.7373L22.4609 26.6279C22.763 26.9873 23.0964 27.2503 23.4609 27.417C23.8255 27.5837 24.2083 27.667 24.6094 27.667C25.0417 27.667 25.4089 27.5863 25.7109 27.4248C26.0182 27.2686 26.2552 27.0368 26.4219 26.7295C26.5885 26.4222 26.6719 26.0472 26.6719 25.6045V19.2607L26.8438 17.3467ZM21.1016 21.667V21.5029C21.1016 20.8623 21.1797 20.279 21.3359 19.7529C21.4922 19.2217 21.7161 18.766 22.0078 18.3857C22.2995 18.0003 22.6536 17.7061 23.0703 17.5029C23.487 17.2946 23.9583 17.1904 24.4844 17.1904C25.0312 17.1904 25.4974 17.2894 25.8828 17.4873C26.2734 17.6852 26.599 17.9691 26.8594 18.3389C27.1198 18.7035 27.3229 19.141 27.4688 19.6514C27.6198 20.1566 27.7318 20.7191 27.8047 21.3389V21.8623C27.737 22.4665 27.6224 23.0186 27.4609 23.5186C27.2995 24.0186 27.0859 24.4508 26.8203 24.8154C26.5547 25.18 26.2266 25.4613 25.8359 25.6592C25.4505 25.8571 24.9948 25.9561 24.4688 25.9561C23.9531 25.9561 23.487 25.8493 23.0703 25.6357C22.6589 25.4222 22.3047 25.1227 22.0078 24.7373C21.7161 24.3519 21.4922 23.8988 21.3359 23.3779C21.1797 22.8519 21.1016 22.2816 21.1016 21.667ZM22.9844 21.5029V21.667C22.9844 22.0524 23.0208 22.4118 23.0938 22.7451C23.1719 23.0785 23.2891 23.3727 23.4453 23.6279C23.6068 23.8779 23.8099 24.0758 24.0547 24.2217C24.3047 24.3623 24.599 24.4326 24.9375 24.4326C25.3802 24.4326 25.7422 24.3389 26.0234 24.1514C26.3099 23.9639 26.5286 23.7113 26.6797 23.3936C26.8359 23.0706 26.9453 22.7113 27.0078 22.3154V20.9014C26.9766 20.5941 26.9115 20.3076 26.8125 20.042C26.7188 19.7764 26.5911 19.5446 26.4297 19.3467C26.2682 19.1436 26.0651 18.9873 25.8203 18.8779C25.5755 18.7633 25.2865 18.7061 24.9531 18.7061C24.6146 18.7061 24.3203 18.779 24.0703 18.9248C23.8203 19.0706 23.6146 19.2712 23.4531 19.5264C23.2969 19.7816 23.1797 20.0785 23.1016 20.417C23.0234 20.7555 22.9844 21.1175 22.9844 21.5029Z" fill="#FF7C40"/>
</svg>
